<?xml version="1.0" encoding="UTF-8" standalone="no"?>
<!-- Generator: Adobe Illustrator 26.4.1, SVG Export Plug-In . SVG Version: 6.00 Build 0)  -->

<svg
   version="1.1"
   id="Layer_1"
   x="0px"
   y="0px"
   viewBox="0 0 192.2 140.24001"
   xml:space="preserve"
   sodipodi:docname="fykos.svg"
   width="192.2"
   height="140.24001"
   inkscape:version="1.4.1 (93de688d07, 2025-03-30)"
   xmlns:inkscape="http://www.inkscape.org/namespaces/inkscape"
   xmlns:sodipodi="http://sodipodi.sourceforge.net/DTD/sodipodi-0.dtd"
   xmlns="http://www.w3.org/2000/svg"
   xmlns:svg="http://www.w3.org/2000/svg"><defs
   id="defs1" /><sodipodi:namedview
   id="namedview1"
   pagecolor="#505050"
   bordercolor="#eeeeee"
   borderopacity="1"
   inkscape:showpageshadow="0"
   inkscape:pageopacity="0"
   inkscape:pagecheckerboard="0"
   inkscape:deskcolor="#d1d1d1"
   inkscape:zoom="3.5360421"
   inkscape:cx="83.568009"
   inkscape:cy="65.468677"
   inkscape:window-width="2560"
   inkscape:window-height="1440"
   inkscape:window-x="1920"
   inkscape:window-y="0"
   inkscape:window-maximized="1"
   inkscape:current-layer="Layer_1" />
<style
   type="text/css"
   id="style1">
	.st0{fill:#1175DA;}
	.st1{fill:#FFFFFF;}
</style>

<polygon
   class="st1"
   points="162.85,121.54 141.31,136.81 138.32,116.48 128.28,81.22 91.31,54.88 109.67,92.54 107.01,110.9 140.38,155.77 107.61,162.89 130.85,152.17 102.8,109.36 89.59,95.2 28.9,64.92 68.14,110.47 92.72,168.12 83.41,183.15 48.74,185.84 80.38,195.12 103.65,182.68 147.98,165.02 159.65,144.67 174.86,122.57 209.49,95.22 188.16,103.95 221.1,68.78 182.84,97.43 143.43,95.17 166.54,106.36 "
   id="polygon1"
   style="fill:#1175da;fill-opacity:1"
   transform="translate(-28.9,-54.88)" />
</svg>
