<?xml version="1.0" encoding="UTF-8" standalone="no"?>
<svg
   width="135.5"
   height="180.40039"
   version="1.1"
   id="svg1"
   sodipodi:docname="naboj-junior.svg"
   inkscape:version="1.4.2 (ebf0e940d0, 2025-05-08)"
   xmlns:inkscape="http://www.inkscape.org/namespaces/inkscape"
   xmlns:sodipodi="http://sodipodi.sourceforge.net/DTD/sodipodi-0.dtd"
   xmlns="http://www.w3.org/2000/svg"
   xmlns:svg="http://www.w3.org/2000/svg">
  <defs
     id="defs1" />
  <sodipodi:namedview
     id="namedview1"
     pagecolor="#505050"
     bordercolor="#eeeeee"
     borderopacity="1"
     inkscape:showpageshadow="0"
     inkscape:pageopacity="0"
     inkscape:pagecheckerboard="0"
     inkscape:deskcolor="#d1d1d1"
     inkscape:zoom="2.3450801"
     inkscape:cx="63.750488"
     inkscape:cy="113.64217"
     inkscape:window-width="1920"
     inkscape:window-height="1080"
     inkscape:window-x="1400"
     inkscape:window-y="0"
     inkscape:window-maximized="1"
     inkscape:current-layer="svg1" />
  <path
     id="path1"
     d="M 74.69922,0 C 43.49922,20.6 0,66.399218 0,90.699218 0,115.19922 48.00039,160.00039 75.90039,180.40039 52.90039,159.20039 0.900391,112.69883 0.900391,90.798828 0.700391,68.898828 50.29922,19.1 74.69922,0 Z M 135.5,16.484375 C 113.92102,23.710037 92.66745,31.889262 71.80078,41 72.1559,40.178336 72.55574,39.376703 73,38.599609 l -0.90039,-0.400391 -1.5,3.09961 c -6.2e-4,0.1 -6.2e-4,0.200782 0,0.300781 l -2,0.900391 c -0.07,-0.16533 -0.13586,-0.33203 -0.19922,-0.5 v -3 h -1 v 3 c 0.0525,0.336017 0.11841,0.669651 0.19922,1 -27,12 -50.099219,24.699609 -58.699219,35.099609 12.6,-10.7 34.699609,-22.2 59.099609,-33 C 68.21167,45.754718 68.4801,46.390788 68.80078,47 63.79869,51.626405 58.92847,56.393852 54.19922,61.298828 42.74743,64.37036 31.54796,68.316032 20.699219,73.099609 30.888603,69.204953 41.3508,66.062794 52,63.699218 c -1.88901,1.945341 -3.7554,3.912527 -5.59961,5.900391 -8.30169,0.607179 -16.533222,1.945703 -24.599609,4 -4.593763,0.99374 -8.988144,2.750712 -13,5.199219 -2.860264,1.747746 -5.072971,4.380992 -6.300781,7.5 -1.051119,2.649926 -1.157847,5.581884 -0.300781,8.300781 0.8,2.699999 2.701172,5.299999 5.701172,7.500001 3.743419,2.4362 7.917359,4.1334 12.298828,5 5.2,1.2 10.5,1.99922 16.000001,2.19922 4.6,0.4 9.3,0.60117 14,0.70117 5.7,1 16.6,2.69922 28.5,3.69922 0.20934,1.75143 0.82656,3.42993 1.80078,4.90039 0.9,1.5 1.80078,2.59961 1.80078,2.59961 l 0.79883,-0.59961 -1.69922,-2.5 c -0.63423,-1.0339 -1.13806,-2.14311 -1.5,-3.30078 2.03168,1.72558 4.2842,3.17251 6.69922,4.30078 l 0.5,-1 -3,-1.5 c -1.32392,-0.76881 -2.56319,-1.67293 -3.69922,-2.69922 2.86305,0.22398 5.7299,0.39068 8.59961,0.5 v -1 c -3,0 -6,-0.3 -9,-0.5 1.7,-2.8 2.69922,-5.30078 2.69922,-5.30078 l -1,-0.40039 c 0,0 -0.99883,2.79961 -2.79883,5.59961 -7.69802,-0.69927 -15.36934,-1.66496 -23,-2.89844 4.1,-0.1 7.6,-0.40117 10,-0.70117 3,-0.5 4.59961,-1.19961 5.59961,-2.09961 1,-1 1.99922,-2.39922 2.19922,-4.69922 0.3,-2.700002 0.4,-5.501172 0.5,-8.201172 C 82.77405,91.149264 91.07197,87.369886 99,82.90039 l 2,2.898438 c 0.1,0.3 0.50078,0.3 0.80078,0 0,0 2.49883,-2.798438 7.29883,-5.398438 2.4,-1.3 4.10078,-2.001172 5.80078,-1.701172 1.7,0.3 3.49883,1.4 5.79883,3.5 0.4,0.4 1.00039,-3.9e-4 0.90039,-0.40039 C 120.521,77.840727 117.88943,74.487854 114.30078,72.5 l 0.79883,-0.59961 c 0.2,-0.2 0.2,-0.401172 0,-0.701172 l -1,-1.798828 c -0.0851,-0.196891 -0.28624,-0.318373 -0.5,-0.300781 -0.0734,0.01781 -0.14096,0.05161 -0.19922,0.09961 L 97.5,79.699218 c -0.13333,0.177778 -0.13333,0.421832 0,0.59961 L 98.5,82 C 90.75572,86.365893 82.66182,90.078353 74.30078,93.099609 V 82.199218 c 7.44302,-4.650523 14.46927,-9.935771 21,-15.798828 L 98,68.599609 h 0.69922 l 12.70117,-14 c 0.13333,-0.177778 0.13333,-0.421831 0,-0.599609 l -1.70117,-1.59961 c -0.19442,-0.190571 -0.5048,-0.190571 -0.69922,0 L 108.30078,53 c -0.28965,-0.623251 -0.62385,-1.225592 -1,-1.800782 8.82589,-1.845413 18.22525,-3.664171 28.19922,-5.453125 v -2.875 c -11.9639,2.123917 -21.26907,4.003363 -27.59961,5.427735 l -2.20117,0.5 c -1.5179,-1.855669 -3.47719,-3.299156 -5.69922,-4.199219 -0.3,0 -0.50078,0.500781 -0.30078,0.800781 1.2,1.7 1.90117,2.998828 2.20117,4.298828 -15.33095,3.285853 -30.57107,6.986826 -45.70117,11.09961 4.38693,-4.449242 8.88844,-8.784031 13.5,-13 3,1 5.60156,2.701172 5.60156,2.701172 l 0.59961,-0.900391 C 75.90039,49.599609 73.4,48.1 70.5,47 l 6.80078,-6 C 96.97451,32.680824 117.46896,24.867202 135.5,18.269531 Z M 74,42.40039 70.09961,45.798828 c 0.17101,-0.675022 0.37081,-1.342315 0.59961,-2 z m -4.40039,2 c -0.14377,0.396446 -0.27754,0.795802 -0.40039,1.199219 -0.0791,-0.330716 -0.14508,-0.664283 -0.19922,-1 z m 32.39648,8.021485 c -0.3056,1.394901 -1.3071,2.991791 -3.29687,5.876953 -1.60796,2.056804 -3.53106,3.846456 -5.69922,5.300781 -0.19057,0.194422 -0.19057,0.504797 0,0.699219 l 1.59961,1.40039 C 88.24434,71.396567 81.4198,76.548524 74.19922,81.099609 74.11282,79.45436 73.91275,77.8167 73.59961,76.199218 c -0.4,-2 -1.2,-3.50039 -2.5,-4.40039 -1.78518,-1.191201 -3.85714,-1.881856 -6,-2 C 59.35337,69.196 53.56874,69.063786 47.80078,69.40039 c 1.94274,-2.056342 3.90798,-4.091378 5.89844,-6.101562 13.2,-3.2 28.00156,-6.498438 41.10156,-9.398438 z m -44.19531,19.177734 6.79883,0.599609 c 3,0.4 4,1 5,1.5 0.8,0.6 1.20117,1.3 1.70117,3 0.66671,8.386771 0.66671,16.814401 0,25.201172 -0.3,2 -0.80039,2.69883 -1.40039,3.29883 -0.8,0.6 -1.50117,1.00039 -4.20117,1.40039 -4.2,0.5 -8.39922,0.80078 -12.69922,0.80078 -5.4,0 -11.00039,-0.1 -16.40039,-0.5 0.67721,-2.21317 1.11386,-4.49388 1.30078,-6.80078 1.22607,0.96531 2.73837,1.49327 4.29883,1.5 3.7,0 6.80156,-2.799222 6.60156,-6.199222 0,-0.999998 -0.30117,-1.999998 -0.70117,-2.999998 l 1,0.59961 c 1.3,0.7 2.7,1.099218 4,1.199218 h 1 c 0.2,0 0.29961,-0.2 0.59961,-0.5 0.14291,-0.247521 0.14291,-0.551307 0,-0.798828 l -0.0996,-0.5 c -0.3,-0.6 -1,-1.2 -1,-2 0,-0.8 0.7,-1.800781 1,-2.800781 0.1,-0.4 0.4,-1 0,-1.5 0,-0.3 -0.2,-0.499609 -0.5,-0.599609 l -1,-0.201172 c -1.6,0 -3.00039,1 -4.40039,2 L 46.4004,88.5 c 1.01735,-0.98262 1.65369,-2.29423 1.79883,-3.701172 0,-3 -2.8,-5.398438 -6,-5.398438 -1.39032,0.0038 -2.74646,0.420789 -3.89844,1.199219 C 38.00079,77.499609 37.69923,74.8 37.19923,73 l 1,-0.09961 c 7.2,-0.5 13.00156,-1.401172 19.60156,-1.201172 z M 27,76.798828 V 76.90039 77 C 12.8,80.6 10.399219,87.299609 7.199219,86.599609 8.199219,83.699609 17.7,77.798828 27,76.798828 Z m 15,3.40039 v 0.09961 c 2.8,0 5,2.00039 5,4.40039 0,2.4 -2,4.400391 -5,4.400391 -0.85843,0.0027 -1.70863,-0.167357 -2.5,-0.5 1,0 1.70078,-0.299609 2.30078,-0.599609 0.609,-0.351482 0.98868,-0.998118 1,-1.701172 -0.0113,-0.703054 -0.391,-1.347737 -1,-1.699219 -0.6,-0.4 -1.4,-0.599609 -2,-0.599609 -0.8,0 -1.5,0.299218 -2,0.699218 C 37.45506,84.87297 37.17375,85.154281 37,85.5 v -0.900391 c 0,-2.4 2.1,-4.400391 5,-4.400391 z m 18.40039,3.59961 C 59.87285,83.806328 59.36926,84.023561 59,84.40039 l -1,1.298828 c -0.52198,1.266406 -0.76011,2.63159 -0.69922,4 0,1.4 0.29883,2.700782 0.79883,3.800782 0.3,0.5 0.6,0.998828 1,1.298828 0.2,0.3 0.80078,0.60156 1.30078,0.60156 0.5,0 1.00039,-0.30156 1.40039,-0.60156 l 1,-1.298828 c 0.3,-1 0.69922,-2.4 0.69922,-4 0,-1.4 -0.30078,-2.800782 -0.80078,-3.800782 -0.23996,-0.497754 -0.58045,-0.939218 -1,-1.298828 -0.34445,-0.353572 -0.8063,-0.568839 -1.29883,-0.601562 z m -21.80078,5.300781 c 0.3,0.3 0.6,0.399609 1,0.599609 l -1,0.5 z m 3.59961,1 c 3.2,0 5.70117,2.399219 5.70117,5.199219 0,3 -2.50117,5.201172 -5.70117,5.201172 -3,0 -5.59961,-2.300002 -5.59961,-5.000002 0,-2.999998 2.39961,-5.300389 5.59961,-5.400389 z m -2.39844,2.199219 c -0.71044,0.0038 -1.40476,0.213695 -2,0.601562 -0.59526,0.36515 -0.97006,1.001531 -1,1.699219 0.0113,0.703049 0.39101,1.347739 1,1.699219 0.59756,0.38283 1.29039,0.59224 2,0.60156 0.7,0 1.4,-0.20156 2,-0.60156 0.5,-0.4 1,-0.99922 1,-1.699219 -0.0113,-0.703054 -0.391,-1.347737 -1,-1.699219 -0.58082,-0.417999 -1.285,-0.630813 -2,-0.601562 z M 9.300781,103.5 C 24.903305,122.29914 88.41078,148.97626 135.5,165.05859 v -1.97265 C 91.56591,146.97277 33.26809,123.72242 9.300781,103.5 Z m 10.955078,4.32617 c 24.014671,11.28873 69.558031,20.87643 87.144531,24.77344 5.26834,1.17427 14.80854,3.11957 28.09961,5.46875 v -2.82422 C 121.0668,132.6805 107.18675,129.93238 94.30078,127 67.3411,121.00896 32.60453,113.62228 20.255859,107.82617 Z"
     style="fill:#c32f27;fill-opacity:1" />
</svg>
