<?xml version="1.0" encoding="UTF-8" standalone="no"?>
<svg
   width="18.586369pt"
   height="27.988897pt"
   viewBox="0 0 18.586369 27.988897"
   version="1.2"
   id="svg1"
   sodipodi:docname="vyfuk.svg"
   inkscape:version="1.4.1 (93de688d07, 2025-03-30)"
   xmlns:inkscape="http://www.inkscape.org/namespaces/inkscape"
   xmlns:sodipodi="http://sodipodi.sourceforge.net/DTD/sodipodi-0.dtd"
   xmlns="http://www.w3.org/2000/svg"
   xmlns:svg="http://www.w3.org/2000/svg">
  <defs
     id="defs1" />
  <sodipodi:namedview
     id="namedview1"
     pagecolor="#505050"
     bordercolor="#eeeeee"
     borderopacity="1"
     inkscape:showpageshadow="0"
     inkscape:pageopacity="0"
     inkscape:pagecheckerboard="0"
     inkscape:deskcolor="#d1d1d1"
     inkscape:document-units="pt"
     inkscape:zoom="3.3804771"
     inkscape:cx="23.517391"
     inkscape:cy="22.038309"
     inkscape:window-width="829"
     inkscape:window-height="1369"
     inkscape:window-x="2781"
     inkscape:window-y="43"
     inkscape:window-maximized="0"
     inkscape:current-layer="svg1" />
  <path
     d="m 11.153315,27.400573 c 1.410156,-1.109375 4.285156,-8.285156 4.828125,-12.035156 0.164063,-1.179688 0.09766,-1.507813 -0.414062,-2.015625 -0.328125,-0.335938 -0.953125,-0.695313 -1.378907,-0.804688 -1.300781,-0.324219 -2.328124,1.035157 -4.3515621,5.75 -0.308594,0.730469 -0.644531,1.328125 -0.730469,1.328125 -0.09766,0 -0.648437,-1.046875 -1.230469,-2.324218 -1.839843,-4.035157 -2.3398427,-4.917969 -3.2187497,-5.652344 -1.023436,-0.863282 -1.996092,-0.917969 -2.921873,-0.164063 -0.6875,0.554688 -0.6875,0.566407 -0.214844,2.480469 1.136718,4.613281 4.5820297,11.871094 6.3242167,13.34375 1.042969,0.875 2.2695321,0.910156 3.3085941,0.09375 z M 15.915034,8.3029174 c 1.949219,-1.492188 2.757813,-2.714844 2.664063,-4.015625 -0.04688,-0.660157 -2.597657,-3.47265697 -3.640626,-4.01171897 -0.730468,-0.375 -0.878906,-0.371094 -1.21875,0.03516 -0.289062,0.351563 -0.308593,0.74999997 -0.08203,1.60546897 l 0.304688,1.136719 -2.242188,0.1875 c -1.234375,0.105468 -4.0117191,0.191406 -6.1718748,0.195312 -2.55078,0 -4.187499,0.136719 -4.671874,0.382813 -0.847656,0.421875 -1.160156,1.546875 -0.503906,1.796875 0.230469,0.09375 3.410156,0.261718 7.0585927,0.382812 l 6.6367191,0.21875 v 1.253906 c 0,1.921876 0.28125,2.046876 1.867187,0.832032 z"
     style="fill:#ff4700;fill-opacity:1;fill-rule:nonzero;stroke:none"
     id="path1-5" />
</svg>
