<?xml version="1.0" encoding="UTF-8" standalone="no"?>
<!-- Created with Inkscape (http://www.inkscape.org/) -->

<svg
   width="33.17524mm"
   height="16.74872mm"
   viewBox="0 0 33.17524 16.74872"
   version="1.1"
   id="svg1"
   inkscape:version="1.4.1 (93de688d07, 2025-03-30)"
   sodipodi:docname="logoFullBlack.svg"
   xmlns:inkscape="http://www.inkscape.org/namespaces/inkscape"
   xmlns:sodipodi="http://sodipodi.sourceforge.net/DTD/sodipodi-0.dtd"
   xmlns="http://www.w3.org/2000/svg"
   xmlns:svg="http://www.w3.org/2000/svg">
  <sodipodi:namedview
     id="namedview1"
     pagecolor="#ffffff"
     bordercolor="#000000"
     borderopacity="0.25"
     inkscape:showpageshadow="2"
     inkscape:pageopacity="0.0"
     inkscape:pagecheckerboard="0"
     inkscape:deskcolor="#d1d1d1"
     inkscape:document-units="mm"
     inkscape:zoom="5.7097575"
     inkscape:cx="51.753512"
     inkscape:cy="45.098238"
     inkscape:window-width="2560"
     inkscape:window-height="1440"
     inkscape:window-x="1920"
     inkscape:window-y="0"
     inkscape:window-maximized="1"
     inkscape:current-layer="layer1" />
  <defs
     id="defs1" />
  <g
     inkscape:label="Layer 1"
     inkscape:groupmode="layer"
     id="layer1"
     transform="translate(-121.36624,-146.06292)">
    <path
       id="rect96"
       style="fill:#000000;fill-opacity:1;stroke:none;stroke-width:0.3;stroke-linecap:round;stroke-linejoin:miter;stroke-dasharray:none;stroke-opacity:1"
       d="m 125.07712,146.06292 c 0.82464,0 1.53112,0.25925 2.11874,0.77773 0.7802,0.69132 1.16995,1.6343 1.16995,2.82929 0,1.17523 -0.35272,2.11592 -1.05885,2.82205 -0.59749,0.59749 -1.341,0.89658 -2.22984,0.89658 -0.54811,0 -1.05637,-0.12132 -1.52548,-0.36328 -0.3654,-0.18764 -0.70612,-0.48622 -1.02216,-0.89607 v 1.5906 l 2.48305,5.01365 2.543,-5.09943 h 1.11156 v 7.3458 h -1.1896 v -4.67362 l -2.46651,4.93149 -2.45722,-4.93562 v 4.67775 h -1.18752 v -4.4881 -2.8577 -7.40834 h 1.16324 v 1.27434 c 0.28147,-0.43454 0.56752,-0.75303 0.85886,-0.95549 0.46416,-0.32097 1.0271,-0.48163 1.68878,-0.48163 z m -0.19223,1.0294 c -0.82958,0 -1.46659,0.34812 -1.911,1.04438 -0.29134,0.4691 -0.43718,1.03203 -0.43718,1.68878 0,0.83946 0.23703,1.48386 0.71107,1.93322 0.43454,0.41478 0.96273,0.62218 1.58491,0.62218 0.81476,0 1.43465,-0.32309 1.85932,-0.96996 0.29627,-0.46417 0.44442,-1.0271 0.44442,-1.68879 0,-0.8197 -0.20229,-1.45441 -0.6072,-1.90376 -0.43948,-0.48392 -0.9876,-0.72605 -1.64434,-0.72605 z m 12.23801,1.31206 h 0.60151 v 2.23346 c 0.15326,-0.21457 0.32042,-0.37644 0.50178,-0.48628 0.235,-0.14559 0.49207,-0.21859 0.7705,-0.21859 0.56451,0 1.00778,0.21211 1.32963,0.63614 0.26054,0.34228 0.39068,0.76599 0.39068,1.27175 0,0.58751 -0.17509,1.05617 -0.52504,1.40612 -0.31929,0.31418 -0.70756,0.47129 -1.16478,0.47129 -0.31164,0 -0.5941,-0.0804 -0.84698,-0.24133 -0.15837,-0.10217 -0.31019,-0.25664 -0.45579,-0.46354 v 0.62064 h -0.60151 z m 4.63486,0 h 0.60203 v 5.22966 h -0.60203 z m -10.08517,1.52497 c 0.0511,0 0.0987,6.2e-4 0.14211,0.004 v 0.60151 c -0.092,-0.005 -0.14695,-0.008 -0.16485,-0.008 -0.33462,0 -0.5954,0.13806 -0.78187,0.41393 -0.0894,0.13538 -0.14811,0.27821 -0.17621,0.42891 -0.0205,0.12772 -0.0305,0.26949 -0.0305,0.4253 v 1.83917 h -0.60151 v -3.61684 h 0.60151 v 0.60927 c 0.0971,-0.22734 0.20708,-0.38714 0.32969,-0.47904 0.19158,-0.14558 0.41852,-0.21808 0.68162,-0.21808 z m 18.01388,0 h 5.2e-4 c 0.26031,1e-4 0.48232,0.0689 0.66611,0.20671 0.12771,0.0971 0.23138,0.24782 0.31058,0.45217 0.12261,-0.20946 0.25909,-0.36282 0.40979,-0.45992 0.2018,-0.13024 0.44723,-0.19534 0.73587,-0.19534 0.41636,0 0.72158,0.12642 0.91571,0.3793 0.10724,0.14049 0.17234,0.29389 0.19534,0.45992 0.0179,0.13283 0.0269,0.31533 0.0269,0.54778 v 2.31407 h -0.60152 v -2.17248 c 0,-0.25799 -0.009,-0.42253 -0.0269,-0.49403 -0.0383,-0.17369 -0.12029,-0.3001 -0.24546,-0.3793 -0.12771,-0.0818 -0.28059,-0.12248 -0.4594,-0.12248 -0.28098,0 -0.49203,0.0995 -0.63252,0.29869 -0.11752,0.16348 -0.17622,0.3957 -0.17622,0.69712 v 2.17248 h -0.60151 v -2.16473 c 0,-0.31674 -0.0397,-0.54896 -0.11886,-0.69712 -0.10983,-0.2069 -0.30503,-0.31057 -0.58601,-0.31057 -0.26054,0 -0.46738,0.0947 -0.62064,0.2837 -0.14044,0.17114 -0.21083,0.41236 -0.21083,0.72399 v 2.16473 h -0.60152 l 0.008,-3.61684 h 0.59376 v 0.50178 c 0.1175,-0.17625 0.24129,-0.31014 0.37156,-0.40204 0.18633,-0.1251 0.40198,-0.1875 0.64698,-0.18759 z m -15.43988,0.004 c 0.57217,0 1.04085,0.21318 1.40612,0.63975 0.28354,0.33462 0.42529,0.75727 0.42529,1.26814 0,0.5543 -0.19519,1.01555 -0.58601,1.38338 -0.34739,0.32951 -0.77055,0.49403 -1.26865,0.49403 -0.36782,0 -0.70215,-0.0931 -1.00356,-0.27957 -0.54919,-0.34484 -0.82372,-0.88386 -0.82372,-1.61696 0,-0.60027 0.18778,-1.07159 0.56327,-1.41387 0.34739,-0.31674 0.77639,-0.4749 1.28726,-0.4749 z m 10.98176,0 c 0.61815,0 1.10322,0.23222 1.45572,0.69711 0.25288,0.33207 0.37931,0.71663 0.37931,1.15342 0,0.0485 -0.003,0.1263 -0.0114,0.23358 h -3.01532 c 0.0307,0.26565 0.10999,0.48834 0.23771,0.66714 0.24266,0.32696 0.56692,0.49041 0.97307,0.49041 0.2631,0 0.51594,-0.0873 0.75861,-0.26097 0.13793,-0.0971 0.24636,-0.2182 0.32556,-0.3638 l 0.52503,0.19534 c -0.10984,0.22734 -0.26429,0.41883 -0.46353,0.57464 -0.34228,0.26821 -0.7242,0.40256 -1.14567,0.40256 -0.58495,0 -1.05626,-0.21105 -1.41387,-0.63252 -0.28609,-0.33206 -0.42891,-0.74944 -0.42891,-1.25264 0,-0.56196 0.17244,-1.02057 0.51728,-1.37562 0.33973,-0.3525 0.77507,-0.52865 1.30638,-0.52865 z m -6.30866,0.53278 c -0.36527,0 -0.66627,0.14282 -0.90382,0.42891 -0.19921,0.24266 -0.29921,0.55424 -0.29921,0.93483 0,0.42658 0.11531,0.76511 0.3452,1.01544 0.21457,0.23755 0.49281,0.35657 0.83509,0.35657 0.39082,0 0.69339,-0.14177 0.90796,-0.4253 0.18646,-0.24778 0.27957,-0.55457 0.27957,-0.91984 0,-0.38827 -0.10687,-0.71887 -0.32143,-0.99218 -0.21201,-0.26565 -0.49342,-0.39843 -0.84336,-0.39843 z m 6.30452,0 c -0.28353,0 -0.53003,0.0852 -0.73949,0.25632 -0.22989,0.18391 -0.37536,0.47008 -0.43666,0.85834 h 2.3797 c -0.023,-0.25543 -0.0933,-0.46226 -0.21084,-0.62063 -0.10473,-0.1456 -0.2375,-0.26202 -0.39843,-0.34882 -0.18647,-0.097 -0.38482,-0.14521 -0.59428,-0.14521 z m -10.97762,0.015 c -0.39337,0 -0.70758,0.1407 -0.94258,0.42168 -0.19929,0.23245 -0.29869,0.54295 -0.29869,0.93121 0,0.41125 0.11585,0.73657 0.3483,0.97668 0.23755,0.24011 0.53272,0.36018 0.88522,0.36018 0.40614,0 0.72563,-0.1534 0.95808,-0.45992 0.18132,-0.24011 0.27182,-0.53368 0.27182,-0.88108 0,-0.43168 -0.12113,-0.766 -0.3638,-1.00355 -0.23244,-0.22989 -0.51862,-0.3452 -0.85835,-0.3452 z m -9.24956,3.15329 c 0.2479,7e-5 0.44876,0.20117 0.44855,0.44907 -7e-5,0.2477 -0.20085,0.44848 -0.44855,0.44855 l 0.58962,2.14251 -0.58394,1.17098 -0.57981,-1.17098 0.57413,-2.14251 c -0.2479,2.1e-4 -0.449,-0.20065 -0.44907,-0.44855 -2.2e-4,-0.2481 0.20097,-0.44929 0.44907,-0.44907 z m 29.40285,3.64061 c 0.0511,0 0.0982,0.001 0.1416,0.004 v 0.60151 c -0.0919,-0.005 -0.14644,-0.008 -0.16434,-0.008 -0.33462,0 -0.59539,0.13806 -0.78186,0.41393 -0.0894,0.13539 -0.14812,0.27821 -0.17622,0.42892 -0.0204,0.12772 -0.0305,0.26947 -0.0305,0.42529 v 1.83917 h -0.60151 v -3.61684 h 0.60151 v 0.60927 c 0.0971,-0.22734 0.20657,-0.38704 0.32918,-0.47904 0.19158,-0.14557 0.41903,-0.21808 0.68213,-0.21808 z m -9.19375,5.1e-4 c 0.27331,0 0.52403,0.0651 0.75137,0.19534 0.18392,0.10473 0.36113,0.2756 0.53227,0.51315 v -0.62064 h 0.59428 v 3.64009 c 0,0.40359 -0.0677,0.72942 -0.20309,0.9772 -0.16093,0.2963 -0.40001,0.51425 -0.71675,0.65474 -0.25288,0.11751 -0.54911,0.17622 -0.88884,0.17622 -0.66924,0 -1.20191,-0.22059 -1.59783,-0.66249 l 0.40618,-0.40618 c 0.13794,0.15582 0.25268,0.26059 0.34468,0.31419 0.22733,0.14305 0.50873,0.21446 0.84336,0.21446 0.40869,0 0.72396,-0.11902 0.94619,-0.35657 0.18132,-0.19669 0.27182,-0.48498 0.27182,-0.86558 v -0.75861 c -0.16093,0.23755 -0.31909,0.40843 -0.47491,0.51315 -0.25799,0.17375 -0.54416,0.26045 -0.85834,0.26045 -0.28609,0 -0.55322,-0.0725 -0.80099,-0.21807 -0.28353,-0.16348 -0.49935,-0.38829 -0.6475,-0.67438 -0.15073,-0.30652 -0.22583,-0.63607 -0.22583,-0.98857 0,-0.38315 0.0857,-0.73704 0.25683,-1.06144 0.29886,-0.56452 0.78764,-0.84646 1.4671,-0.84646 z m -13.42606,0.004 c 0.30908,0 0.59154,0.0793 0.84698,0.23771 0.14815,0.0919 0.29839,0.24007 0.45165,0.44442 v -0.5979 h 0.60203 v 3.61683 h -0.60203 v -0.69349 c -0.34995,0.51854 -0.789,0.77773 -1.31775,0.77773 -0.50831,0 -0.92831,-0.18884 -1.26038,-0.56689 -0.29375,-0.33462 -0.4408,-0.77155 -0.4408,-1.31052 0,-0.37805 0.0804,-0.72135 0.24132,-1.03043 0.1456,-0.28098 0.36248,-0.50207 0.65113,-0.663 0.25543,-0.14306 0.53155,-0.21446 0.82785,-0.21446 z m 4.9072,0 c 0.34228,0 0.61946,0.10102 0.83147,0.30282 0.14304,0.13282 0.23352,0.28729 0.27182,0.46354 0.0281,0.14049 0.0424,0.30658 0.0424,0.49816 v 2.43654 h -0.60151 v -2.30632 c 0,-0.2963 -0.0434,-0.50313 -0.13022,-0.62063 -0.1175,-0.16093 -0.30687,-0.24133 -0.56741,-0.24133 -0.26821,0 -0.49673,0.10209 -0.68575,0.30644 -0.15578,0.16603 -0.23357,0.3845 -0.23357,0.65526 v 2.20658 h -0.5979 v -3.61683 h 0.5979 v 0.50953 c 0.13283,-0.18136 0.26666,-0.31524 0.40204,-0.40204 0.20179,-0.12772 0.42554,-0.19172 0.67076,-0.19172 z m 3.884,0 c 0.30907,0 0.59155,0.0793 0.84698,0.23771 0.14816,0.0919 0.2989,0.24007 0.45216,0.44442 v -0.5979 h 0.60152 v 3.61683 h -0.60152 v -0.69349 c -0.34994,0.51854 -0.78951,0.77773 -1.31826,0.77773 -0.50832,0 -0.92833,-0.18884 -1.26039,-0.56689 -0.29375,-0.33462 -0.4408,-0.77155 -0.4408,-1.31052 0,-0.37805 0.0804,-0.72135 0.24133,-1.03043 0.1456,-0.28098 0.36248,-0.50207 0.65112,-0.663 0.25544,-0.14306 0.53155,-0.21446 0.82786,-0.21446 z m 9.37772,0 c 0.61815,0 1.10323,0.23222 1.45573,0.69711 0.25289,0.33207 0.3793,0.71662 0.3793,1.15342 0,0.0485 -0.003,0.12578 -0.0114,0.23306 h -3.01532 c 0.0307,0.26566 0.10948,0.48885 0.2372,0.66766 0.24266,0.32696 0.56744,0.49041 0.97358,0.49041 0.2631,0 0.51595,-0.0873 0.75861,-0.26097 0.13793,-0.0971 0.24636,-0.2182 0.32556,-0.3638 l 0.52504,0.19534 c -0.10983,0.22733 -0.26482,0.41882 -0.46406,0.57464 -0.34228,0.26821 -0.72368,0.40256 -1.14515,0.40256 -0.58495,0 -1.05626,-0.21053 -1.41387,-0.632 -0.28609,-0.33206 -0.42943,-0.74995 -0.42943,-1.25316 0,-0.56196 0.17244,-1.02056 0.51728,-1.37562 0.33973,-0.3525 0.77559,-0.52865 1.3069,-0.52865 z m -18.07693,0.53278 c -0.3806,0 -0.67576,0.14284 -0.88522,0.42892 -0.19667,0.27332 -0.29507,0.59122 -0.29507,0.95394 0,0.42402 0.12906,0.76521 0.38705,1.0232 0.21712,0.21712 0.47526,0.32556 0.77412,0.32556 0.37549,0 0.68441,-0.15711 0.92707,-0.47129 0.2069,-0.2631 0.31058,-0.57572 0.31058,-0.93844 0,-0.39337 -0.11002,-0.70758 -0.3297,-0.94258 -0.235,-0.25288 -0.53122,-0.37931 -0.88883,-0.37931 z m 8.79119,0 c -0.3806,0 -0.67575,0.14284 -0.88521,0.42892 -0.19667,0.27332 -0.29508,0.59122 -0.29508,0.95394 0,0.42402 0.12907,0.76521 0.38706,1.0232 0.21712,0.21712 0.47525,0.32556 0.77411,0.32556 0.37549,0 0.68441,-0.15711 0.92708,-0.47129 0.2069,-0.2631 0.31057,-0.57572 0.31057,-0.93844 0,-0.39337 -0.11002,-0.70758 -0.32969,-0.94258 -0.23501,-0.25288 -0.53123,-0.37931 -0.88884,-0.37931 z m 9.28161,0 c -0.28353,0 -0.53004,0.0852 -0.73949,0.25632 -0.2299,0.18392 -0.37537,0.47008 -0.43667,0.85834 h 2.37918 c -0.023,-0.25544 -0.0933,-0.46226 -0.21084,-0.62063 -0.10473,-0.1456 -0.2375,-0.26202 -0.39842,-0.34882 -0.18647,-0.0971 -0.3843,-0.14521 -0.59376,-0.14521 z m -4.63125,0.0114 c -0.37549,0 -0.67963,0.14177 -0.91208,0.4253 -0.19152,0.23245 -0.28733,0.53501 -0.28733,0.90795 0,0.45467 0.1407,0.80856 0.42168,1.06144 0.22223,0.19919 0.47508,0.29869 0.75861,0.29869 0.36272,0 0.669,-0.14548 0.91933,-0.43667 0.17113,-0.2018 0.25683,-0.50172 0.25683,-0.9002 0,-0.42657 -0.0931,-0.74501 -0.27957,-0.95447 -0.235,-0.26821 -0.52752,-0.40204 -0.87747,-0.40204 z"
       sodipodi:nodetypes="scssscccccccccccccccccccsscscscscsccccscscscccccccccccccsccscccccccccscccsccsccsccscsccscscsccccccscscscscscsscscccsccccscscssscscscscsscccccsscscscscsccccccccccccsccsccccccccsccccsccscccscsccsccscsscccccccscsccscccsccscscsccccccccscccccccscsccsscscccsccccscscssscssscscsscssscscsscccccsscscscscs" />
  </g>
</svg>
